<svg id="Group_48" data-name="Group 48" xmlns="http://www.w3.org/2000/svg" xmlns:xlink="http://www.w3.org/1999/xlink" width="158" height="158" viewBox="0 0 158 158">
  <defs>
    <clipPath id="clip-path">
      <rect id="Rectangle_24" data-name="Rectangle 24" width="158" height="158" fill="none"/>
    </clipPath>
  </defs>
  <g id="Group_47" data-name="Group 47" clip-path="url(#clip-path)">
    <path id="Path_97" data-name="Path 97" d="M79.093,2.527A76.683,76.683,0,0,0,6.554,54.352c3.017.6,6.772,1.147,8.239.519,2.615-1.121,2.241-8.966,13.075-14.2a261.642,261.642,0,0,1,24.47-9.9S66.524,24.8,69.331,24.8s8.411-4.483,10.653-2.428,2.988,9.339-1.495,11.021S64.48,37.126,61.678,41.609l-2.8,4.482s14.2,2.989,17.745,3.549,22.043,6.538,22.043,6.538,22.041,7.472,24.283,7.472,7.286,6.725,1.681,8.033c0,0,5.749.218,5.639,2.968s-.55,6.27-7.59,8.359c0,0,2.53,7.37-2.53,8.14s-5.83.66-10.669,0-11.659.537-11.659.537,13.969,5.732,15.4,7.6,2.75,5.28,2.64,6.379,8.249,1.32,10.12,5.28,1.209,8.909-1.32,9.019-5.389-2.09-5.389-2.09,4.179,3.409.44,6.38-4.07-1.431-10.779-1.32-22.439-2.09-22.439-2.09l-18.808-.771,13.748,6.27s11.22,5.17,12.76,5.17,7.809,1.98,8.469,3.74.11,6.489-6.379,5.829S76.37,135.7,72.521,134.6s-7.15-2.419-16.939-2.53-29.808-4.84-32.557-5.94c-1.066-.426-3.322-1.2-6-1.973A76.653,76.653,0,1,0,79.093,2.527" fill="#cb9a48"/>
    <path id="Path_98" data-name="Path 98" d="M130.267,74.651c.11-2.75-5.639-2.968-5.639-2.968,5.6-1.307.56-8.032-1.682-8.032s-24.283-7.472-24.283-7.472S80.171,50.2,76.622,49.641s-17.745-3.549-17.745-3.549l2.8-4.483c2.8-4.483,12.328-6.538,16.812-8.219s3.736-8.966,1.494-11.021S72.139,24.8,69.331,24.8s-16.993,5.977-16.993,5.977a261.547,261.547,0,0,0-24.47,9.9c-10.834,5.23-10.46,13.075-13.075,14.2-1.466.628-5.222.083-8.239-.519A76.554,76.554,0,0,0,2.441,79.18c0,1.374.04,2.739.111,4.095a25.131,25.131,0,0,0,8-.9,15.7,15.7,0,0,0,5.01-2.5,22.792,22.792,0,0,0,4.021-4.165c2.506-3.188,4.7-6.554,7.916-9.1a29.684,29.684,0,0,1,11.7-5.47c4.28-1.024,8.675-1.417,13.027-2.011q7.1-.97,14.108-2.477Q69.86,55.9,73.356,55c1.061-.271,2.385-.884,3.4-.207a5.028,5.028,0,0,1,1.618,2.37c1.314,3.358-.271,7.416-2.826,9.734-3.069,2.785-7.205,3.838-11.1,4.9-4.57,1.248-9.244,2.407-14.017,2.28a1,1,0,0,1,0-2,28.946,28.946,0,0,0,3.338-.106,67.808,67.808,0,0,0,12.97-2.892c3.381-.995,7.171-2.389,9.028-5.611a7.286,7.286,0,0,0,1.012-4.558,4.851,4.851,0,0,0-.755-1.993c-.078-.118-.236-.406-.369-.461,0,0-.151.048-.262.076-.535.136-1.069.279-1.6.416q-6.753,1.72-13.621,2.939c-4.429.785-8.883,1.339-13.34,1.928a48.067,48.067,0,0,0-12.222,2.87,24.9,24.9,0,0,0-9.6,7.183c-2.415,2.918-4.377,6.249-7.246,8.768C13.531,84.36,8.116,85.385,2.68,85.252a76.251,76.251,0,0,0,14.341,38.9c2.682.775,4.939,1.547,6,1.974,2.749,1.1,22.769,5.83,32.557,5.94s13.089,1.43,16.94,2.529,17.268,5.83,23.758,6.49,7.039-4.07,6.379-5.83-6.929-3.74-8.47-3.74-12.759-5.169-12.759-5.169l-13.748-6.27,18.808.771s15.729,2.2,22.439,2.089,7.04,4.29,10.779,1.32-.44-6.379-.44-6.379,2.86,2.2,5.389,2.09,3.19-5.06,1.32-9.019-10.229-4.181-10.119-5.28-1.209-4.509-2.64-6.379-15.4-7.6-15.4-7.6,6.82-1.2,11.659-.537,5.61.771,10.669,0,2.529-8.139,2.529-8.139c7.04-2.089,7.48-5.609,7.59-8.359" fill="#fff"/>
    <path id="Path_99" data-name="Path 99" d="M17.765,80.644c2.87-2.519,4.83-5.85,7.246-8.767a24.9,24.9,0,0,1,9.6-7.183,48.067,48.067,0,0,1,12.222-2.87c4.457-.59,8.912-1.143,13.34-1.928q6.862-1.218,13.621-2.939c.535-.137,1.069-.281,1.6-.416.11-.029.26-.077.262-.076.133.055.29.343.369.461a4.862,4.862,0,0,1,.755,1.993,7.285,7.285,0,0,1-1.012,4.557c-1.857,3.222-5.647,4.616-9.028,5.611a67.818,67.818,0,0,1-12.97,2.892,28.946,28.946,0,0,1-3.338.106,1,1,0,0,0,0,2c4.773.127,9.446-1.033,14.017-2.28,3.9-1.063,8.031-2.117,11.1-4.9,2.554-2.318,4.14-6.376,2.826-9.734a5.028,5.028,0,0,0-1.618-2.37c-1.016-.678-2.341-.065-3.4.207q-3.494.892-7.02,1.65-7,1.506-14.108,2.477c-4.351.6-8.747.987-13.027,2.011a29.684,29.684,0,0,0-11.7,5.47c-3.215,2.549-5.41,5.915-7.916,9.1a22.792,22.792,0,0,1-4.021,4.165,15.7,15.7,0,0,1-5.01,2.5,25.114,25.114,0,0,1-8,.9c.035.661.076,1.321.128,1.978,5.436.133,10.851-.893,15.085-4.608" fill="#cb9a48"/>
    <path id="Path_100" data-name="Path 100" d="M17.765,80.644c2.87-2.519,4.83-5.85,7.246-8.767a24.9,24.9,0,0,1,9.6-7.183,48.067,48.067,0,0,1,12.222-2.87c4.457-.59,8.912-1.143,13.34-1.928q6.862-1.218,13.621-2.939c.535-.137,1.069-.281,1.6-.416.11-.029.26-.077.262-.076.133.055.29.343.369.461a4.862,4.862,0,0,1,.755,1.993,7.285,7.285,0,0,1-1.012,4.557c-1.857,3.222-5.647,4.616-9.028,5.611a67.818,67.818,0,0,1-12.97,2.892,28.946,28.946,0,0,1-3.338.106,1,1,0,0,0,0,2c4.773.127,9.446-1.033,14.017-2.28,3.9-1.063,8.031-2.117,11.1-4.9,2.554-2.318,4.14-6.376,2.826-9.734a5.028,5.028,0,0,0-1.618-2.37c-1.016-.678-2.341-.065-3.4.207q-3.494.892-7.02,1.65-7,1.506-14.108,2.477c-4.351.6-8.747.987-13.027,2.011a29.684,29.684,0,0,0-11.7,5.47c-3.215,2.549-5.41,5.915-7.916,9.1a22.792,22.792,0,0,1-4.021,4.165,15.7,15.7,0,0,1-5.01,2.5,25.114,25.114,0,0,1-8,.9c.035.661.076,1.321.128,1.978C8.116,85.385,13.531,84.36,17.765,80.644Z" fill="none" stroke="#ca9946" stroke-miterlimit="10" stroke-width="1.174"/>
    <path id="Path_101" data-name="Path 101" d="M53.986,75.063c6.146,3.695,12.992,5.979,19.782,8.168,3.374,1.087,6.754,2.161,10.074,3.406a75.808,75.808,0,0,1,9.5,4.375c3.627,1.959,7.611,4,11.866,3.484a2.118,2.118,0,0,0,2.054-2.054,2.066,2.066,0,0,0-2.054-2.054,10.14,10.14,0,0,1-4.826-.577,30.26,30.26,0,0,1-4.512-2.1,88.947,88.947,0,0,0-9.758-4.584c-6.447-2.513-13.149-4.29-19.631-6.7a61.9,61.9,0,0,1-10.422-4.906,2.054,2.054,0,0,0-2.073,3.547" fill="#ca9946"/>
    <path id="Path_102" data-name="Path 102" d="M69.852,80.147l41.761,4.521,11.921,1.29a2.068,2.068,0,0,0,2.054-2.054,2.1,2.1,0,0,0-2.054-2.054L81.667,77.318,69.852,76.039A2.067,2.067,0,0,0,67.8,78.093a2.1,2.1,0,0,0,2.054,2.054" fill="#ca9946"/>
    <path id="Path_103" data-name="Path 103" d="M79.246,67.74c7.356.434,14.563,2.78,21.752,4.625,7.388,1.9,15.008,3.262,22.614,1.907a33.984,33.984,0,0,0,12.028-4.685,2.054,2.054,0,1,0-2.074-3.547,30.6,30.6,0,0,1-10.028,4.072A34.682,34.682,0,0,1,113,70.536c-7.091-.7-14.218-3.128-21.238-4.848a70.028,70.028,0,0,0-12.519-2.055,2.054,2.054,0,1,0,0,4.108" fill="#ca9946"/>
    <path id="Path_104" data-name="Path 104" d="M66.287,94.59c7.376,3.665,15.251,6.113,23.131,8.435,3.91,1.153,7.828,2.286,11.7,3.554,1.85.605,3.69,1.241,5.513,1.924,1.975.741,3.926,1.752,6.047,1.975a6.509,6.509,0,0,0,6-2.977c1.369-1.945,1.65-4.363,1.915-6.659a2.066,2.066,0,0,0-2.054-2.054,2.1,2.1,0,0,0-2.054,2.054,9.253,9.253,0,0,1-1.355,4.586c.063-.082.19-.194-.079.082-.147.153-.29.307-.451.446.206-.178-.044.036-.083.061a3.743,3.743,0,0,1-.543.306c.3-.124-.122.021-.2.039-.337.08.37,0-.328.048a3.4,3.4,0,0,1-1.253-.181c-1.78-.495-3.486-1.328-5.22-1.965-1.786-.655-3.589-1.268-5.4-1.853-7.206-2.329-14.548-4.219-21.716-6.667a94.06,94.06,0,0,1-11.505-4.7,2.105,2.105,0,0,0-2.81.737,2.073,2.073,0,0,0,.737,2.81" fill="#ca9946"/>
    <path id="Path_105" data-name="Path 105" d="M67.228,110.59a228.713,228.713,0,0,1,26.727,3.27q6.692,1.223,13.309,2.821c4.074.984,8.4,1.861,12.183,3.662a15.97,15.97,0,0,1,5.016,3.5,10.132,10.132,0,0,1,2.594,4.712,2.054,2.054,0,0,0,3.961-1.092,15.816,15.816,0,0,0-7.223-9.425c-3.827-2.427-8.344-3.541-12.688-4.642a244.67,244.67,0,0,0-28.085-5.382q-7.868-1.04-15.795-1.537a2.054,2.054,0,1,0,0,4.108" fill="#ca9946"/>
    <circle id="Ellipse_3" data-name="Ellipse 3" cx="76.653" cy="76.653" r="76.653" transform="translate(2.348 2.347)" fill="none" stroke="#cb9a48" stroke-miterlimit="10" stroke-width="4.695"/>
  </g>
</svg>
