<svg id="Layer_1" data-name="Layer 1" xmlns="http://www.w3.org/2000/svg" viewBox="0 0 267.9 267.89"><defs><style>.cls-1{fill:#093e57;}</style></defs><path class="cls-1" d="M.21,139.55V129.24A134,134,0,0,1,94.5,6.41,129.46,129.46,0,0,1,123.22.92,134,134,0,0,1,264.1,101.77a128.56,128.56,0,0,1,3.79,25.28,132.88,132.88,0,0,1-13.95,67.43A131.32,131.32,0,0,1,226,231.94a132.6,132.6,0,0,1-64.9,33.75,144.19,144.19,0,0,1-21.82,2.67H128.73A133.78,133.78,0,0,1,13.11,192,132,132,0,0,1,1.68,154.78C.91,149.73.48,144.65.21,139.55Zm164.32-21.36c1.58,2.49,3.08,4.75,4.46,7.07.59,1,1,1.21,2.06.52,4.86-3.14,9.77-6.19,14.72-9.2.93-.57.9-.94.36-1.78q-8.85-13.81-17.6-27.67A11.55,11.55,0,0,0,164,83a23.49,23.49,0,0,0-3.84-1.31L127.71,71.22c-.7-.23-1.18-.37-1.59.53-2.43,5.34-4.91,10.65-7.4,16-.35.75-.33,1,.58,1.3,5,1.39,10,2.85,14.94,4.28,1.34.39,1.34.41.64,1.66q-9.57,17-19.15,34c-.48.86-.51,1.27.44,1.85q15,9,29.87,18.16c.8.48,1.14.44,1.61-.41,3.55-6.46,7.16-12.9,10.75-19.35,2-3.63,4-7.24,6.13-11.05ZM132.81,228.42a11.26,11.26,0,0,0,21.1,5.48q5.07-9.17,10.15-18.33,6.1-11,12.22-22a11.13,11.13,0,0,0-2.1-14c-.67-.63-1.39-1.21-2.08-1.81l-9.16-8.09c-.34-.3-.6-.59-1.08-.11q-6.24,6.31-12.52,12.57c-.47.47-.47.7.13,1,1.32.75,2.57,1.63,3.91,2.33,1,.5,1,1,.49,1.89q-9.87,17.73-19.65,35.51A10.43,10.43,0,0,0,132.81,228.42Zm-64-38.52h23.6a13.44,13.44,0,0,0,3.89-.54c3-.88,4.92-3.15,6.83-5.42.46-.54,0-.78-.3-1.07C98.27,177.93,93.66,173,89.09,168a2.47,2.47,0,0,0-2.06-.9H46.53a24.87,24.87,0,0,0-3.34.22,11.34,11.34,0,0,0,2.15,22.52c7.83.08,15.66.06,23.49.06ZM110.4,66.17a9.48,9.48,0,0,0-3.73.58C95.81,70.59,84.93,74.4,74.09,78.33a11.31,11.31,0,0,0,7.72,21.26Q96.75,94.28,111.7,89c.55-.2,1.1-.33,1.4-1q4.13-9,8.31-17.91c.32-.68.12-.9-.52-1.09-1.45-.43-2.89-.93-4.33-1.38C114.51,67,112.56,66,110.4,66.17Zm-.69,84.27c0,.46.06,1,.09,1.49a11.72,11.72,0,0,0,4.78,9.11c9.38,7,19.6,12.56,29.9,18a.78.78,0,0,0,1.11-.11l0,0q6.15-6.22,12.35-12.38c.52-.52.56-.81,0-1.3-1.43-1.21-2.8-2.5-4.22-3.71-3.73-3.17-7.12-6.76-11.51-9.11-2.29-1.23-4.45-2.68-6.66-4q-10.48-6.39-21-12.75c-.41-.25-.81-.75-1.19.11A38.52,38.52,0,0,0,109.71,150.44Zm90.87-8.81h15a11.34,11.34,0,0,0,.09-22.68H192.19a2,2,0,0,0-1.15.19q-8.91,5.6-17.86,11.16c-.55.34-.56.63-.23,1.14,1,1.5,1.92,3,2.87,4.55a11.3,11.3,0,0,0,10.06,5.64C190.76,141.65,195.67,141.63,200.58,141.63ZM177,82.77a17.66,17.66,0,1,0-17.61-17.71v0a17.55,17.55,0,0,0,17.44,17.66Zm-72.21,65.82c-.72,1.08-1.21,1.89-1.78,2.65q-4.77,6.28-9.59,12.55a1.11,1.11,0,0,0,0,1.7Q99.81,172.2,106,179c.63.69,1,.77,1.63,0,2.83-3.19,5.71-6.34,8.6-9.48.49-.53.58-.82-.12-1.24-1-.58-1.82-1.28-2.75-1.9-3.88-2.57-6.84-5.84-8-10.49a24.2,24.2,0,0,1-.54-7.3Z" transform="translate(-0.21 -0.47)"/></svg>