<svg id="Vector_Smart_Object" data-name="Vector Smart Object" xmlns="http://www.w3.org/2000/svg" xmlns:xlink="http://www.w3.org/1999/xlink" width="158" height="158" viewBox="0 0 158 158">
  <defs>
    <clipPath id="clip-path">
      <rect id="Rectangle_35" data-name="Rectangle 35" width="158" height="158" fill="none"/>
    </clipPath>
  </defs>
  <g id="Group_52" data-name="Group 52">
    <g id="Group_51" data-name="Group 51" clip-path="url(#clip-path)">
      <path id="Path_112" data-name="Path 112" d="M158,79A79,79,0,1,1,79,0a79,79,0,0,1,79,79" fill="#cb9a48"/>
      <path id="Path_113" data-name="Path 113" d="M58.153,26.16s-.78-1.478-.911-1.644.088-.538.7-.5,3.463,0,3.463,0,3.111-.37,3.462-.37,1.184-.248,1.578,0a3.423,3.423,0,0,0,1.841.7c1.183.165,9.379,1.491,9.554,1.615s-1.8,1.822-1.8,1.822a41.112,41.112,0,0,0-5.215-.248c-1.753.124-5.259.248-5.259.248s.062,1.684.035,1.811a.435.435,0,0,1-.376.279c-.161,0,.832.457.886.888s.725,1.752.618,1.828a2.678,2.678,0,0,1-.537.177,15.625,15.625,0,0,1,2.04.305c.242.127.242.38.216.685s.16,11.471.16,11.471a1.5,1.5,0,0,1-.617.178c-.43.05-.054.355.591.406,0,0,.414.325.623.5s4.628,2.3,6.3,4.177,4.92,5.282,5.816,9.94c0,0,.386,1.846.436,9.311s-.228,50.175-.228,50.175.144,4.337-.43,5.523a5.892,5.892,0,0,1-4.193,3.118c-2.259.44-11.721.915-14.517.948a117.8,117.8,0,0,1-14.7-.914c-3.835-.644-4.409-1.356-5.054-2.237s-.968-1.084-.968-3.591V65.6a23.151,23.151,0,0,1,.86-6.573,21.073,21.073,0,0,1,4.624-7.759A19.225,19.225,0,0,1,53.681,46.7a8.215,8.215,0,0,0,.969-.62,1.706,1.706,0,0,1,1.006-.225c.274-.035.512-.259.11-.38s-.8.018-.823-.536.292-10.82.292-10.82-.054-.83.219-.934a11.159,11.159,0,0,1,2.195-.363c.347.035-.421-.208-.6-.4s.493-1.8.6-1.971a3.783,3.783,0,0,1,.75-.674c.11-.052-.22-.191-.384-.225a15.052,15.052,0,0,1,.139-3.392" fill="#fff"/>
      <line id="Line_28" data-name="Line 28" y2="8.999" transform="translate(59.013 34.596)" fill="none" stroke="#cb9a48" stroke-miterlimit="10" stroke-width="3.027"/>
      <line id="Line_29" data-name="Line 29" y2="8.999" transform="translate(64.823 34.596)" fill="none" stroke="#cb9a48" stroke-miterlimit="10" stroke-width="3.027"/>
      <line id="Line_30" data-name="Line 30" x2="11.97" transform="translate(56.064 32.139)" fill="none" stroke="#cb9a48" stroke-miterlimit="10" stroke-width="3.027"/>
      <line id="Line_31" data-name="Line 31" x2="44.685" transform="translate(39.091 73.987)" fill="none" stroke="#cb9a48" stroke-miterlimit="10" stroke-width="3.027"/>
      <line id="Line_32" data-name="Line 32" x2="30.68" transform="translate(46.709 90.036)" fill="none" stroke="#cb9a48" stroke-miterlimit="10" stroke-width="3.027"/>
      <line id="Line_33" data-name="Line 33" x2="44.685" transform="translate(39.091 94.323)" fill="none" stroke="#cb9a48" stroke-miterlimit="10" stroke-width="3.027"/>
      <path id="Path_114" data-name="Path 114" d="M145.547,77.815,120.427,67.92S105.865,64.1,98.038,77.815c0,0-10.012,1.215-15.108,3.819s-4.732,5.554-4.55,7.291c0,0-8.192,1.389-8.92,1.909,0,0-8.191-6.075-14.015-5.555s-7.463,4.687-5.279,6.944,14.38,9.2,14.38,9.2,22.935,3.472,30.034,6.6c0,0,33.2-6.77,35.621-6.944s7.7,1.736,7.7,1.736Z" fill="#fff"/>
      <path id="Path_115" data-name="Path 115" d="M145.547,77.815,120.427,67.92S105.865,64.1,98.038,77.815c0,0-10.012,1.215-15.108,3.819s-4.732,5.554-4.55,7.291c0,0-8.192,1.389-8.92,1.909,0,0-8.191-6.075-14.015-5.555s-7.463,4.687-5.279,6.944,14.38,9.2,14.38,9.2,22.935,3.472,30.034,6.6c0,0,33.2-6.77,35.621-6.944s7.7,1.736,7.7,1.736Z" fill="none" stroke="#ca9946" stroke-miterlimit="10" stroke-width="3.633"/>
      <path id="Path_116" data-name="Path 116" d="M111.183,86.831l-27.8,8.448S75.527,90.8,79.522,84.2" fill="none" stroke="#ca9946" stroke-miterlimit="10" stroke-width="3.633"/>
    </g>
  </g>
</svg>
