<svg id="Group_50" data-name="Group 50" xmlns="http://www.w3.org/2000/svg" xmlns:xlink="http://www.w3.org/1999/xlink" width="158" height="158" viewBox="0 0 158 158">
  <defs>
    <clipPath id="clip-path">
      <rect id="Rectangle_34" data-name="Rectangle 34" width="158" height="158" fill="none"/>
    </clipPath>
  </defs>
  <g id="Group_49" data-name="Group 49" clip-path="url(#clip-path)">
    <path id="Path_106" data-name="Path 106" d="M158,79A79,79,0,1,1,79,0a79,79,0,0,1,79,79" fill="#cb9a48"/>
    <path id="Path_107" data-name="Path 107" d="M78.026,52.453H45.379a5.685,5.685,0,0,0-5.686,5.686v63.227a5.686,5.686,0,0,0,5.686,5.687H78.026a5.686,5.686,0,0,0,5.686-5.687V58.139a5.685,5.685,0,0,0-5.686-5.686" fill="#fff"/>
    <rect id="Rectangle_25" data-name="Rectangle 25" width="44.019" height="74.6" rx="5.686" transform="translate(39.693 52.453)" fill="none" stroke="#ca9946" stroke-miterlimit="10" stroke-width="3.009"/>
    <rect id="Rectangle_26" data-name="Rectangle 26" width="21.808" height="6.523" transform="translate(50.463 45.931)" fill="#fff"/>
    <rect id="Rectangle_27" data-name="Rectangle 27" width="21.808" height="6.523" transform="translate(50.463 45.931)" fill="none" stroke="#ca9946" stroke-miterlimit="10" stroke-width="2.407"/>
    <rect id="Rectangle_28" data-name="Rectangle 28" width="14.515" height="10.518" transform="translate(54.92 35.413)" fill="#fff"/>
    <rect id="Rectangle_29" data-name="Rectangle 29" width="14.515" height="10.518" transform="translate(54.92 35.413)" fill="none" stroke="#ca9946" stroke-miterlimit="10" stroke-width="1.805"/>
    <path id="Path_108" data-name="Path 108" d="M68.61,38.513s-3.815.374-3.815,2.159,3.815,2.38,3.815,2.38" fill="#fff"/>
    <path id="Path_109" data-name="Path 109" d="M68.61,38.513s-3.815.374-3.815,2.159,3.815,2.38,3.815,2.38" fill="none" stroke="#ca9946" stroke-miterlimit="10" stroke-width="1.805"/>
    <path id="Path_110" data-name="Path 110" d="M116.061,69.022H93a4.317,4.317,0,0,0-4.317,4.317v49.179A4.318,4.318,0,0,0,93,126.836h23.064a4.317,4.317,0,0,0,4.317-4.317V73.339a4.317,4.317,0,0,0-4.317-4.317" fill="#fff"/>
    <rect id="Rectangle_30" data-name="Rectangle 30" width="31.699" height="57.814" rx="4.317" transform="translate(88.679 69.022)" fill="none" stroke="#ca9946" stroke-miterlimit="10" stroke-width="1.805"/>
    <rect id="Rectangle_31" data-name="Rectangle 31" width="17.581" height="2.353" transform="translate(95.557 65.214)" fill="#fff"/>
    <rect id="Rectangle_32" data-name="Rectangle 32" width="17.581" height="2.353" transform="translate(95.557 65.214)" fill="none" stroke="#ca9946" stroke-miterlimit="10" stroke-width="2.407"/>
    <path id="Path_111" data-name="Path 111" d="M111.927,67.99H96.769a2.351,2.351,0,0,1-2.351-2.351V63.373a2.351,2.351,0,0,1,2.351-2.351h15.159a2.351,2.351,0,0,1,2.351,2.351v2.266a2.351,2.351,0,0,1-2.351,2.351" fill="#fff"/>
    <rect id="Rectangle_33" data-name="Rectangle 33" width="19.862" height="6.968" rx="2.351" transform="translate(94.417 61.022)" fill="none" stroke="#ca9946" stroke-miterlimit="10" stroke-width="1.203"/>
    <line id="Line_25" data-name="Line 25" x2="19.858" transform="translate(75.699 40.672)" fill="none" stroke="#fff" stroke-linecap="round" stroke-miterlimit="10" stroke-width="1.805"/>
    <line id="Line_26" data-name="Line 26" x2="15.457" y2="8.361" transform="translate(75.924 44.795)" fill="none" stroke="#fff" stroke-linecap="round" stroke-miterlimit="10" stroke-width="1.805"/>
    <line id="Line_27" data-name="Line 27" y1="8.36" x2="15.457" transform="translate(75.924 28.188)" fill="none" stroke="#fff" stroke-linecap="round" stroke-miterlimit="10" stroke-width="1.805"/>
  </g>
</svg>
