<svg id="Layer_1" data-name="Layer 1" xmlns="http://www.w3.org/2000/svg" viewBox="0 0 260.97 260.97"><defs><style>.cls-1{fill:#093e57;}.cls-2,.cls-3,.cls-4{fill:#fff;}.cls-3,.cls-4,.cls-5{stroke:#093e57;stroke-miterlimit:10;}.cls-3{stroke-width:5px;}.cls-4,.cls-5{stroke-width:6px;}.cls-5{fill:none;}</style></defs><circle class="cls-1" cx="130.48" cy="130.48" r="130.48"/><path class="cls-2" d="M965.57,844.9s-1.29-2.44-1.51-2.71.15-.89,1.16-.83,5.72,0,5.72,0,5.14-.61,5.72-.61,2-.41,2.6,0a5.68,5.68,0,0,0,3,1.16c2,.28,15.49,2.46,15.78,2.67s-3,3-3,3a67,67,0,0,0-8.62-.41c-2.89.21-8.68.41-8.68.41s.1,2.78,0,3a.71.71,0,0,1-.62.46c-.26,0,1.38.76,1.47,1.47s1.19,2.89,1,3a4.88,4.88,0,0,1-.89.29,25.76,25.76,0,0,1,3.37.5c.4.21.4.63.35,1.14s.27,18.94.27,18.94a2.52,2.52,0,0,1-1,.3c-.71.08-.09.58,1,.67,0,0,.68.53,1,.82s7.64,3.8,10.4,6.9,8.13,8.72,9.61,16.42c0,0,.64,3,.72,15.37s-.38,82.88-.38,82.88.24,7.16-.71,9.12a9.7,9.7,0,0,1-6.92,5.15c-3.73.73-19.36,1.51-24,1.57s-17.94-.45-24.28-1.51-7.28-2.24-8.34-3.7-1.6-1.79-1.6-5.93V910.05s-.12-6.38,1.42-10.86a34.79,34.79,0,0,1,7.64-12.82,31.85,31.85,0,0,1,10.77-7.55,13.17,13.17,0,0,0,1.6-1,2.92,2.92,0,0,1,1.66-.37c.46,0,.85-.43.18-.62s-1.32,0-1.35-.89.48-17.87.48-17.87-.09-1.37.36-1.54a18.25,18.25,0,0,1,3.62-.6c.58.05-.69-.35-1-.66s.81-3,1-3.25a6.57,6.57,0,0,1,1.24-1.12c.18-.08-.36-.31-.63-.37S965.4,845.29,965.57,844.9Z" transform="translate(-869.52 -801.69)"/><line class="cls-3" x1="97.47" y1="57.14" x2="97.47" y2="72.01"/><line class="cls-3" x1="107.07" y1="57.14" x2="107.07" y2="72.01"/><line class="cls-3" x1="92.6" y1="53.08" x2="112.37" y2="53.08"/><line class="cls-3" x1="64.57" y1="122.2" x2="138.37" y2="122.2"/><line class="cls-3" x1="77.15" y1="148.71" x2="127.82" y2="148.71"/><line class="cls-3" x1="64.57" y1="155.79" x2="138.37" y2="155.79"/><path class="cls-4" d="M1109.91,930.22l-41.49-16.35s-24.05-6.3-37,16.35c0,0-16.54,2-25,6.31s-7.82,9.17-7.51,12c0,0-13.53,2.29-14.74,3.15,0,0-13.53-10-23.15-9.17s-12.32,7.74-8.72,11.46,23.76,15.2,23.76,15.2,37.88,5.73,49.6,10.9c0,0,54.84-11.19,58.84-11.47s12.72,2.86,12.72,2.86Z" transform="translate(-869.52 -801.69)"/><path class="cls-5" d="M1053.16,945.11l-45.92,13.95s-13-7.4-6.38-18.3" transform="translate(-869.52 -801.69)"/></svg>