<svg id="Group_46" data-name="Group 46" xmlns="http://www.w3.org/2000/svg" xmlns:xlink="http://www.w3.org/1999/xlink" width="158" height="158" viewBox="0 0 158 158">
  <defs>
    <clipPath id="clip-path">
      <rect id="Rectangle_23" data-name="Rectangle 23" width="158" height="158" fill="none"/>
    </clipPath>
  </defs>
  <g id="Group_45" data-name="Group 45" clip-path="url(#clip-path)">
    <path id="Path_83" data-name="Path 83" d="M105.658,62.352c-.166.1-.269.148-.269.148v-.922a6.042,6.042,0,0,1-.707,2.07c.087-.1.176-.2.259-.3a11.4,11.4,0,0,0,.717-1" fill="#cb9a48"/>
    <path id="Path_84" data-name="Path 84" d="M114.738,40.554l-4.169,10.309c0,.027.007.054.01.08q2.079-5.195,4.159-10.389" fill="#cb9a48"/>
    <path id="Path_85" data-name="Path 85" d="M69.814,143.759c.916-7.106,1.244-14.463-.649-21.344-.028-.059-.372-.781-.878-1.987-5.384,8.265-9.565,17.451-13.666,26.465a22.261,22.261,0,0,1-3.562,6.018,78.43,78.43,0,0,0,14.63,3.967,29.727,29.727,0,0,1,2.77-3.883Z" fill="#cb9a48"/>
    <path id="Path_86" data-name="Path 86" d="M64.308,108.63a17.059,17.059,0,0,1-.686-5.956A19.994,19.994,0,0,1,64.1,96.6a49.074,49.074,0,0,0-3.809,11.014,24.508,24.508,0,0,0-.3,6.084l0,.1a52.679,52.679,0,0,1,4.6-4.626q-.123-.541-.237-1.089Z" fill="#cb9a48"/>
    <path id="Path_87" data-name="Path 87" d="M67.964,74.688c-.31.349-.645.724-1.08,1.27Z" fill="#cb9a48"/>
    <path id="Path_88" data-name="Path 88" d="M158,79A79,79,0,1,0,29.132,140.268,54.323,54.323,0,0,1,29.289,134c-.883-7.817,1.752-15.556,4.349-22.983A51.515,51.515,0,0,1,36.3,104.4c1.913-3.72,4.695-6.907,7.3-10.183,5.165-6.508,9.7-13.491,14.22-20.462a67.212,67.212,0,0,0,4.676-7.986,38.91,38.91,0,0,0,3.461-16.847c-.008-.911.037-1.987.8-2.487a2.316,2.316,0,0,1,2.519.432c3.015,2.21,3.892,6.356,3.742,10.09-.249,6.2-2.642,12.021-5.432,17.621.628-.407,1.014-.632,1.014-.632A9.249,9.249,0,0,1,75.7,70.09l-.179.41c.079-.1.157-.206.235-.307l-.021,0a14.862,14.862,0,0,1,2.23-4.024L78.7,65.04a54.063,54.063,0,0,0,4.8-12.492c.718-2.907,1.209-5.912,2.545-8.592a6.378,6.378,0,0,1,1.717-2.28,3.019,3.019,0,0,1,2.7-.588c1.755.57,2.192,2.812,2.281,4.655.165,3.416.149,6.838.133,10.258a18.317,18.317,0,0,1-.283,3.8,20.1,20.1,0,0,1-3.562,7.159c-.142.2-.282.41-.415.62.508.117.629.14,1.158.272.485-.522,1.078-1.062,1.6-1.523a10.362,10.362,0,0,1,3.115-1.692,5.424,5.424,0,0,1,2.313-.522,1.94,1.94,0,0,1,1.8,1.321,4.409,4.409,0,0,1-.855,2.84,5.5,5.5,0,0,1-1.133,1.477c.533.158.34.1.87.264,1.2-1.147,2.435-2.253,3.724-3.3.838-.678,1.7-1.341,2.487-2.071a1.656,1.656,0,0,1-.851.236,66.672,66.672,0,0,0-3.8-7.547,17.606,17.606,0,0,1-2.387-8.028,2.284,2.284,0,0,1,.842-2.064,1.7,1.7,0,0,1,1.778.21,4.983,4.983,0,0,1,1.2,1.445c.772,1.21,1.709,1.863,2.48,3.073a18.933,18.933,0,0,1,1.727,3.136l.014-2.484a14.366,14.366,0,0,0-.519-2.423c-1.21-3.472-2.62-6.608-3.888-9.931s-2.182-6.91-1.623-10.423a4.809,4.809,0,0,1,1.177-2.726,2.183,2.183,0,0,1,2.745-.361,3.321,3.321,0,0,1,.957,1.693c1.305,4,2.338,6.688,3.643,10.689l.384.957c.282-.145.1-.059.406-.2-.255-.936-.511-1.862-.752-2.771-1.305-4.92-2.232-10.253-.422-15.01a2.839,2.839,0,0,1,.787-1.257c1.035-.824,2.667.014,3.229,1.213a11.8,11.8,0,0,1,.575,3.9c.485,4.855,4.742,9.9,3.346,14.572l2.567-6.413.543-1.08c1.776-4.757,3.563-9.03,7.958-11.571.913-.528,2.17-.888,2.945-.172a2.488,2.488,0,0,1,.635,1.424c.759,4.248-1.342,8.4-2.872,12.438a59.5,59.5,0,0,0-3.333,14.075,24.842,24.842,0,0,1-2.559,8.951c-.8,1.613-2.416,5.011-3.223,6.99-.425,1.043-4.195,5.352-5.578,9.639h0a2.988,2.988,0,0,1,.469-.918l2.4-3.3c1.086-1.495,2.472-3.146,4.319-3.094.9,2.682-.808,5.468-1.269,8.259-.214,1.3-.154,2.621-.276,3.928a14.4,14.4,0,0,1-4.011,8.663l-.347.514L94.18,122.094a3.612,3.612,0,0,0-.465,1.07,3.754,3.754,0,0,0,0,1.022c.8,9.5-.858,19.185.956,28.546a7.26,7.26,0,0,1-.283,3.766A79.022,79.022,0,0,0,158,79" fill="#cb9a48"/>
    <path id="Path_89" data-name="Path 89" d="M94.665,152.732c-1.814-9.361-.153-19.044-.955-28.546a3.734,3.734,0,0,1,0-1.023,3.6,3.6,0,0,1,.465-1.07q9.463-16.6,18.928-33.206l.347-.513a14.4,14.4,0,0,0,4.011-8.664c.121-1.308.062-2.633.276-3.929.461-2.79,2.167-5.578,1.269-8.259-1.847-.052-3.233,1.6-4.319,3.094q-1.2,1.65-2.4,3.3a3,3,0,0,0-.469.919h0c1.383-4.288,5.153-8.6,5.578-9.639.807-1.981,2.421-5.378,3.223-6.991a24.829,24.829,0,0,0,2.558-8.951,59.524,59.524,0,0,1,3.333-14.075c1.531-4.034,3.631-8.19,2.872-12.438a2.481,2.481,0,0,0-.635-1.423c-.775-.717-2.032-.357-2.946.171-4.4,2.541-6.182,6.815-7.958,11.571l-.543,1.08-2.567,6.413c1.4-4.675-2.86-9.717-3.345-14.572a11.814,11.814,0,0,0-.575-3.9c-.562-1.2-2.194-2.038-3.229-1.213a2.825,2.825,0,0,0-.787,1.256c-1.81,4.758-.884,10.091.421,15.011.241.909.5,1.834.752,2.77-.3.144-.124.059-.405.2l-.384-.957c-1.3-4-2.338-6.688-3.643-10.688a3.327,3.327,0,0,0-.957-1.693,2.181,2.181,0,0,0-2.745.361,4.8,4.8,0,0,0-1.177,2.726c-.559,3.513.353,7.1,1.622,10.423s2.679,6.459,3.889,9.931a14.366,14.366,0,0,1,.519,2.423l-.014,2.484a18.914,18.914,0,0,0-1.727-3.136c-.771-1.21-1.709-1.863-2.48-3.073a5,5,0,0,0-1.2-1.445A1.7,1.7,0,0,0,97.5,47.25a2.286,2.286,0,0,0-.842,2.065,17.606,17.606,0,0,0,2.388,8.027,66.723,66.723,0,0,1,3.8,7.547,1.653,1.653,0,0,0,.851-.237c-.79.73-1.65,1.393-2.487,2.071-1.289,1.045-2.528,2.149-3.724,3.3-.531-.162-.338-.107-.87-.265a5.5,5.5,0,0,0,1.133-1.476,4.414,4.414,0,0,0,.855-2.84,1.939,1.939,0,0,0-1.8-1.321,5.411,5.411,0,0,0-2.313.522,10.357,10.357,0,0,0-3.114,1.691c-.525.461-1.119,1-1.6,1.523-.529-.132-.649-.155-1.158-.272.134-.209.274-.415.416-.619a20.11,20.11,0,0,0,3.562-7.16,18.281,18.281,0,0,0,.283-3.8c.017-3.42.033-6.842-.132-10.258-.089-1.842-.527-4.085-2.281-4.655a3.023,3.023,0,0,0-2.7.588,6.388,6.388,0,0,0-1.717,2.279c-1.336,2.68-1.826,5.685-2.545,8.592a54.024,54.024,0,0,1-4.8,12.492l-.73,1.126a14.86,14.86,0,0,0-2.23,4.024l.021,0c-.079.1-.157.2-.236.306l.179-.409a9.249,9.249,0,0,0-7.11,3.859s-.386.225-1.014.632c2.791-5.6,5.184-11.422,5.433-17.621.15-3.735-.727-7.88-3.743-10.09a2.313,2.313,0,0,0-2.519-.431c-.761.5-.807,1.576-.8,2.487A38.9,38.9,0,0,1,62.49,65.773a67.173,67.173,0,0,1-4.675,7.986c-4.523,6.971-9.055,13.954-14.22,20.463-2.6,3.277-5.382,6.462-7.3,10.183a51.526,51.526,0,0,0-2.662,6.615c-2.6,7.426-5.231,15.165-4.348,22.982a54.166,54.166,0,0,0-.157,6.267A78.873,78.873,0,0,0,51.059,152.91a22.234,22.234,0,0,0,3.561-6.018c4.1-9.013,8.283-18.2,13.666-26.464.507,1.206.85,1.928.879,1.987,1.892,6.881,1.564,14.238.649,21.344l-1.355,9.235a29.763,29.763,0,0,0-2.771,3.883,79.5,79.5,0,0,0,28.695-.379,7.255,7.255,0,0,0,.282-3.766M114.738,40.554q-2.08,5.195-4.159,10.389c0-.027-.007-.053-.01-.08Zm-9.349,21.023V62.5s.1-.051.269-.148a11.388,11.388,0,0,1-.717,1c-.084.1-.172.2-.26.3a6.024,6.024,0,0,0,.707-2.07m-45.4,52.22,0-.1a24.5,24.5,0,0,1,.3-6.084A49.083,49.083,0,0,1,64.1,96.6a19.994,19.994,0,0,0-.482,6.076,17.056,17.056,0,0,0,.686,5.956l.05-.547q.113.548.237,1.09a52.671,52.671,0,0,0-4.6,4.625m6.891-37.839c.435-.545.77-.921,1.08-1.27Z" fill="#fff"/>
    <path id="Path_90" data-name="Path 90" d="M72.535,64.107C69.517,69.88,66.142,75.476,62.9,81.126c-1.6,2.786-3.2,5.572-4.745,8.388-.8,1.452-1.54,2.932-2.343,4.38a34.022,34.022,0,0,1-1.981,3.2C53.188,98,52.4,98.779,51.7,99.639a6.842,6.842,0,0,0-1.633,4.02,39.854,39.854,0,0,0,.091,4.076q.143,4.2.284,8.408c.082,2.4-.3,6.781,3.3,6.559,1.4-.086,2.687-1.257,3.717-2.12a23.345,23.345,0,0,0,2.364-2.311c3.085-3.433,5.368-7.369,8.891-10.4a24.423,24.423,0,0,1,5.872-3.7,9.368,9.368,0,0,1,3.106-.965,2.92,2.92,0,0,1,.659.015c.087.014.634.212.41.107.06.028.479.277.3.142.084.063.5.537.361.36.214.278.114.158.055.071,0,0,.094.323.048.131s0,.145,0,.166c.046-.237-.032.115-.039.133a2.727,2.727,0,0,1-.665.948c-.773.81-1.655,1.519-2.472,2.283a57.316,57.316,0,0,0-4.743,4.949,33.583,33.583,0,0,0-6.9,12.191,23.287,23.287,0,0,0-.682,3.28A2.036,2.036,0,0,0,65.4,130.4a1.98,1.98,0,0,0,2.419-1.374A25.791,25.791,0,0,1,72.96,117.1a45.839,45.839,0,0,1,4.413-5.052c1.6-1.609,3.54-3.007,4.922-4.81a4.7,4.7,0,0,0-.813-6.828c-2.253-1.713-5.147-1.185-7.581-.188a29.289,29.289,0,0,0-11.7,8.795c-1.437,1.771-2.719,3.58-4.144,5.3a30.773,30.773,0,0,1-2.236,2.455c-.777.757-1.572,1.273-2.355,1.924-.438.364-.317-.255.612.258.153.085.264.282.4.379s-.036-.036-.007-.131c0,.008,0,.46.013-.056.016-.7-.047-1.405-.071-2.1q-.071-2.1-.142-4.2c-.094-2.783-.245-5.572-.28-8.356a3.764,3.764,0,0,1,.213-1.63,5.181,5.181,0,0,1,.749-.972,31,31,0,0,0,2.438-3.021,57.306,57.306,0,0,0,3.379-5.9c1.357-2.561,2.8-5.074,4.241-7.59C68.4,79.424,71.9,73.527,75.174,67.51q.384-.705.758-1.418a2.011,2.011,0,0,0-.706-2.691,1.989,1.989,0,0,0-2.691.706" fill="#cb9a48"/>
    <path id="Path_91" data-name="Path 91" d="M91.931,61.62c-.168.228-.123.162.024-.024-.087.109-.172.218-.259.327q-.3.379-.614.751c-.467.563-.94,1.122-1.414,1.679-.956,1.126-1.925,2.245-2.852,3.395a11.257,11.257,0,0,0-2.677,4.745,13.21,13.21,0,0,0-.128,3.382,13.428,13.428,0,0,1,.045,2.9,2.039,2.039,0,0,0,1.374,2.42c2.387.861,4.033-1.336,5.218-2.817a26.9,26.9,0,0,1,3.719-3.706c2.712-2.283,5.786-4.287,8.483-6.753a24.939,24.939,0,0,0,3.829-4.383,34.21,34.21,0,0,0,2.851-5.434c1.864-4.22,3.784-8.432,5.494-12.715a38.175,38.175,0,0,0,2.857-15.152c-.063-2.527-4-2.537-3.934,0a33.691,33.691,0,0,1-2.057,12.375c-1.439,3.983-3.28,7.833-4.973,11.713-1.5,3.441-2.993,6.887-5.541,9.542A67.47,67.47,0,0,1,93.565,70.3a40.7,40.7,0,0,0-4.333,3.76,25.024,25.024,0,0,0-1.956,2.292,6.762,6.762,0,0,1-.7.842s-.386.479-.287.255c.165-.036.136-.025-.087.033q.79.064.27-.084l1.374,2.42a14.626,14.626,0,0,0,.139-3.281,14.8,14.8,0,0,1-.058-3.013,5.393,5.393,0,0,1,1.1-2.247c.1-.139.2-.274.3-.415.219-.314-.254.31-.005.005.193-.235.38-.474.574-.71,1.8-2.189,3.741-4.273,5.427-6.553a1.98,1.98,0,0,0-.706-2.691,2.013,2.013,0,0,0-2.691.706" fill="#cb9a48"/>
    <path id="Path_92" data-name="Path 92" d="M121.087,59.594a4.812,4.812,0,0,1-.456.744c.244-.336-.077.085-.135.153-.148.172-.3.339-.454.5-.569.61-1.172,1.187-1.776,1.763a42.636,42.636,0,0,0-3.605,3.9,70.515,70.515,0,0,0-7.532,11.172c-1.2,2.229,2.193,4.218,3.4,1.986a65.359,65.359,0,0,1,7.267-10.8,44.335,44.335,0,0,1,3.481-3.687,14.306,14.306,0,0,0,3.211-3.745,2.019,2.019,0,0,0-.706-2.691,1.984,1.984,0,0,0-2.691.706" fill="#cb9a48"/>
    <path id="Path_93" data-name="Path 93" d="M99.226,47.057c.7,1.215,1.3,2.483,1.941,3.732q.469.921.974,1.818c.116.205.226.412.329.624.063.13.122.261.181.393-.117-.264,0,.005.049.129a24,24,0,0,1,1.088,3.686q.1.458.173.919c.019.114.069.455.031.168.016.126.03.254.043.381a9.368,9.368,0,0,1,.032,1.678,1.983,1.983,0,0,0,1.967,1.967A2.006,2.006,0,0,0,108,60.586a18.616,18.616,0,0,0-1.508-7.879,38.758,38.758,0,0,0-1.77-3.593c-.7-1.349-1.341-2.726-2.1-4.042-1.265-2.192-4.666-.214-3.4,1.985" fill="#cb9a48"/>
    <path id="Path_94" data-name="Path 94" d="M102.336,27.393c.061.133.117.265.178.4.154.343-.1-.266.038.094.13.331.262.661.386.994.274.738.527,1.483.767,2.233.525,1.636.992,3.289,1.433,4.949.926,3.489,1.734,7.008,2.5,10.534.354,1.622.7,3.247,1.041,4.871a1.967,1.967,0,0,0,3.793-1.046c-1.419-6.7-2.8-13.448-4.86-19.987a44.32,44.32,0,0,0-1.883-5.026,1.98,1.98,0,0,0-2.691-.706,2.013,2.013,0,0,0-.706,2.691" fill="#cb9a48"/>
    <path id="Path_95" data-name="Path 95" d="M60.538,113.87l1.37-1.492a.3.3,0,0,0-.428-.428,8.247,8.247,0,0,0-1.478,1.8l.564.153s.01-.081.006-.052.007-.045.008-.052c.008-.051.019-.1.029-.153a3.146,3.146,0,0,1,.085-.315c.016-.05.032-.1.051-.146l.028-.073.012-.029c-.008.021-.008.021,0,0,.045-.1.094-.2.147-.291a.3.3,0,1,0-.522-.306,3.71,3.71,0,0,0-.45,1.416.3.3,0,0,0,.222.292.313.313,0,0,0,.342-.139c.1-.157.2-.31.3-.459.052-.075.107-.149.162-.222s-.017.021.018-.024l.048-.06c.028-.036.057-.071.086-.107a8.05,8.05,0,0,1,.768-.806l-.428-.428-1.37,1.492a.3.3,0,1,0,.428.428" fill="#cb9a48"/>
    <path id="Path_96" data-name="Path 96" d="M63.444,108.1c2.136-7.127,4.3-14.25,6.79-21.264.642-1.808,1.306-3.609,2.009-5.395.643-1.634,1.145-2.848,1.891-4.451.907-1.951,1.943-3.835,2.753-5.831.364-.9.695-1.808,1.033-2.715.967-2.59,1.992-5.177,2.831-7.813a1.816,1.816,0,1,0-3.5-.965c-.732,2.3-1.623,4.559-2.462,6.822-.407,1.1-.813,2.194-1.236,3.285-.613,1.58-1.438,3.067-2.176,4.59-3.315,6.839-5.654,14.182-7.949,21.412-1.2,3.775-2.346,7.566-3.482,11.36-.672,2.243,2.832,3.2,3.5.965" fill="#cb9a48"/>
  </g>
</svg>
