<svg id="Layer_1" data-name="Layer 1" xmlns="http://www.w3.org/2000/svg" viewBox="0 0 261.07 261.07"><defs><style>.cls-1{fill:#093e57;}.cls-2{fill:#fff;}</style></defs><path class="cls-1" d="M1044.05,972.49l-.45.25v-1.53a9.65,9.65,0,0,1-1.17,3.42c.15-.16.3-.32.43-.49A19.16,19.16,0,0,0,1044.05,972.49Z" transform="translate(-869.47 -869.47)"/><path class="cls-1" d="M1059.05,936.48l-6.89,17s0,.09,0,.13Z" transform="translate(-869.47 -869.47)"/><path class="cls-1" d="M984.82,1107c1.51-11.74,2.06-23.89-1.07-35.26,0-.1-.61-1.3-1.45-3.29-8.9,13.66-15.81,28.84-22.58,43.73-1.61,3.52-3.28,7.11-5.89,9.94a129.48,129.48,0,0,0,24.18,6.56,49.53,49.53,0,0,1,4.57-6.42Z" transform="translate(-869.47 -869.47)"/><path class="cls-1" d="M975.72,1049a28.23,28.23,0,0,1-1.13-9.84,32.86,32.86,0,0,1,.8-10c-2.58,5.89-5.18,11.86-6.3,18.19a40.37,40.37,0,0,0-.49,10.06v.17a85.62,85.62,0,0,1,7.6-7.64c-.14-.6-.27-1.2-.39-1.81Z" transform="translate(-869.47 -869.47)"/><path class="cls-1" d="M981.76,992.88c-.51.57-1.06,1.19-1.78,2.09Z" transform="translate(-869.47 -869.47)"/><path class="cls-1" d="M1130.53,1000A130.53,130.53,0,1,0,917.6,1101.24a90.34,90.34,0,0,1,.26-10.36c-1.46-12.92,2.9-25.7,7.19-38a84.81,84.81,0,0,1,4.39-10.93c3.17-6.15,7.76-11.41,12.06-16.83,8.53-10.75,16-22.29,23.49-33.81a110.48,110.48,0,0,0,7.73-13.2,64.31,64.31,0,0,0,5.72-27.83c0-1.51.06-3.29,1.32-4.11s3-.17,4.16.71c5,3.65,6.43,10.5,6.19,16.67-.42,10.25-4.37,19.87-9,29.12,1-.67,1.67-1.05,1.67-1.05a15.31,15.31,0,0,1,11.75-6.37c-.1.22-.2.45-.29.67l.39-.5h0a24.59,24.59,0,0,1,3.68-6.65l1.21-1.86a89.22,89.22,0,0,0,7.92-20.64c1.19-4.8,2-9.77,4.21-14.19a10.59,10.59,0,0,1,2.84-3.77,5,5,0,0,1,4.46-1c2.9.94,3.62,4.64,3.77,7.69.27,5.64.25,11.3.22,17a30,30,0,0,1-.47,6.28c-1,4.37-3.31,8.18-5.88,11.83q-.36.51-.69,1l1.91.45c.8-.86,1.79-1.75,2.65-2.51a17.27,17.27,0,0,1,5.15-2.8,9,9,0,0,1,3.82-.86,3.21,3.21,0,0,1,3,2.18c.34,1.46-.63,3.42-1.41,4.7a9.19,9.19,0,0,1-1.88,2.44l1.44.43c2-1.89,4-3.72,6.16-5.44,1.38-1.12,2.8-2.22,4.11-3.43a2.81,2.81,0,0,1-1.41.4c-1.61-4.38-4.14-8.34-6.29-12.47s-4-8.61-3.94-13.27c0-1.29.27-2.77,1.39-3.41a2.8,2.8,0,0,1,2.94.35,8.35,8.35,0,0,1,2,2.39c1.28,2,2.83,3.07,4.1,5.07a30.84,30.84,0,0,1,2.85,5.19l0-4.11a24.52,24.52,0,0,0-.86-4c-2-5.74-4.33-10.92-6.43-16.41s-3.6-11.42-2.68-17.22a7.9,7.9,0,0,1,2-4.51,3.6,3.6,0,0,1,4.53-.6,5.53,5.53,0,0,1,1.59,2.8c2.15,6.61,3.86,11,6,17.66l.64,1.58c.46-.24.17-.09.67-.33-.42-1.55-.85-3.08-1.24-4.58-2.16-8.13-3.69-16.94-.7-24.8a4.66,4.66,0,0,1,1.3-2.08c1.71-1.36,4.4,0,5.33,2s.74,4.27,1,6.45c.8,8,7.84,16.35,5.53,24.07q2.13-5.29,4.24-10.59l.9-1.79c2.93-7.86,5.89-14.92,13.15-19.12,1.51-.87,3.59-1.46,4.87-.28a4.13,4.13,0,0,1,1,2.35c1.25,7-2.22,13.89-4.75,20.55a98.77,98.77,0,0,0-5.51,23.26,41,41,0,0,1-4.22,14.79c-1.33,2.67-4,8.28-5.33,11.55-.7,1.72-6.93,8.84-9.22,15.93h0a5,5,0,0,1,.77-1.52l4-5.45c1.8-2.47,4.09-5.2,7.14-5.11,1.48,4.43-1.34,9-2.1,13.64-.35,2.14-.25,4.33-.45,6.49a23.83,23.83,0,0,1-6.63,14.32l-.57.85q-15.64,27.44-31.28,54.86a6.3,6.3,0,0,0-.77,1.77,6.38,6.38,0,0,0,0,1.69c1.32,15.7-1.42,31.7,1.57,47.17a12,12,0,0,1-.46,6.22A130.57,130.57,0,0,0,1130.53,1000Z" transform="translate(-869.47 -869.47)"/><path class="cls-2" d="M1025.88,1121.83c-3-15.47-.25-31.47-1.57-47.17a6.38,6.38,0,0,1,0-1.69,6.3,6.3,0,0,1,.77-1.77q15.64-27.42,31.28-54.86l.57-.85a23.83,23.83,0,0,0,6.63-14.32c.2-2.16.1-4.35.45-6.49.76-4.61,3.58-9.21,2.1-13.64-3-.09-5.34,2.64-7.14,5.11l-4,5.45a5,5,0,0,0-.77,1.52h0c2.29-7.09,8.52-14.21,9.22-15.93,1.33-3.27,4-8.88,5.33-11.55a41,41,0,0,0,4.22-14.79,98.77,98.77,0,0,1,5.51-23.26c2.53-6.66,6-13.53,4.75-20.55a4.13,4.13,0,0,0-1-2.35c-1.28-1.18-3.36-.59-4.87.28-7.26,4.2-10.22,11.26-13.15,19.12l-.9,1.79q-2.11,5.29-4.24,10.59c2.31-7.72-4.73-16.05-5.53-24.07-.21-2.18,0-4.47-1-6.45s-3.62-3.37-5.33-2a4.66,4.66,0,0,0-1.3,2.08c-3,7.86-1.46,16.67.7,24.8.39,1.5.82,3,1.24,4.58-.5.24-.21.09-.67.33l-.64-1.58c-2.15-6.61-3.86-11-6-17.66a5.53,5.53,0,0,0-1.59-2.8,3.6,3.6,0,0,0-4.53.6,7.9,7.9,0,0,0-2,4.51c-.92,5.8.59,11.73,2.68,17.22s4.43,10.67,6.43,16.41a24.52,24.52,0,0,1,.86,4l0,4.11a30.84,30.84,0,0,0-2.85-5.19c-1.27-2-2.82-3.08-4.1-5.07a8.35,8.35,0,0,0-2-2.39,2.8,2.8,0,0,0-2.94-.35c-1.12.64-1.39,2.12-1.39,3.41,0,4.66,1.79,9.13,3.94,13.27s4.68,8.09,6.29,12.47a2.81,2.81,0,0,0,1.41-.4c-1.31,1.21-2.73,2.31-4.11,3.43-2.13,1.72-4.18,3.55-6.16,5.44l-1.44-.43a9.19,9.19,0,0,0,1.88-2.44c.78-1.28,1.75-3.24,1.41-4.7a3.21,3.21,0,0,0-3-2.18,9,9,0,0,0-3.82.86,17.27,17.27,0,0,0-5.15,2.8c-.86.76-1.85,1.65-2.65,2.51l-1.91-.45q.33-.51.69-1c2.57-3.65,4.93-7.46,5.88-11.83a30,30,0,0,0,.47-6.28c0-5.65.05-11.31-.22-17-.15-3-.87-6.75-3.77-7.69a5,5,0,0,0-4.46,1,10.59,10.59,0,0,0-2.84,3.77c-2.21,4.42-3,9.39-4.21,14.19a89.22,89.22,0,0,1-7.92,20.64l-1.21,1.86a24.59,24.59,0,0,0-3.68,6.65h0l-.39.5c.09-.22.19-.45.29-.67a15.31,15.31,0,0,0-11.75,6.37s-.63.38-1.67,1.05c4.61-9.25,8.56-18.87,9-29.12.24-6.17-1.21-13-6.19-16.67-1.21-.88-2.91-1.53-4.16-.71s-1.33,2.6-1.32,4.11a64.31,64.31,0,0,1-5.72,27.83,110.48,110.48,0,0,1-7.73,13.2c-7.47,11.52-15,23.06-23.49,33.81-4.3,5.42-8.89,10.68-12.06,16.83a84.81,84.81,0,0,0-4.39,10.93c-4.29,12.27-8.65,25-7.19,38a90.34,90.34,0,0,0-.26,10.36,130.27,130.27,0,0,0,36.23,20.88c2.61-2.83,4.28-6.42,5.89-9.94,6.77-14.89,13.68-30.07,22.58-43.73.84,2,1.4,3.19,1.45,3.29,3.13,11.37,2.58,23.52,1.07,35.26l-2.24,15.26a49.53,49.53,0,0,0-4.57,6.42,131.56,131.56,0,0,0,47.41-.63A12,12,0,0,0,1025.88,1121.83Zm33.17-185.35-6.87,17.16s0-.09,0-.13Zm-15.45,34.73v1.53l.45-.25a19.16,19.16,0,0,1-1.19,1.65c-.13.17-.28.33-.43.49A9.65,9.65,0,0,0,1043.6,971.21Zm-75,86.29v-.17a40.37,40.37,0,0,1,.49-10.06c1.12-6.33,3.72-12.3,6.3-18.19a32.86,32.86,0,0,0-.8,10,28.23,28.23,0,0,0,1.13,9.84l.09-.91c.12.61.25,1.21.39,1.81A85.62,85.62,0,0,0,968.6,1057.5ZM980,995c.72-.9,1.27-1.52,1.78-2.09Z" transform="translate(-869.47 -869.47)"/><path class="cls-1" d="M989.32,975.39c-5,9.54-10.56,18.79-15.92,28.12-2.64,4.61-5.29,9.21-7.84,13.86-1.32,2.4-2.54,4.85-3.87,7.24a58.79,58.79,0,0,1-3.27,5.29c-1.07,1.5-2.37,2.78-3.53,4.2a11.32,11.32,0,0,0-2.7,6.64c-.15,2.23.08,4.51.15,6.74l.47,13.89c.14,4-.49,11.21,5.46,10.84,2.32-.14,4.44-2.08,6.14-3.5a39.18,39.18,0,0,0,3.91-3.82c5.1-5.67,8.87-12.18,14.69-17.19a40.48,40.48,0,0,1,9.7-6.11,15.36,15.36,0,0,1,5.14-1.59,4.33,4.33,0,0,1,1.08,0c.15,0,1.05.35.68.18.1,0,.79.45.49.23.14.1.83.89.6.6.36.45.19.26.09.11s.16.54.08.22,0,.24,0,.27c.07-.39-.06.19-.07.22a4.57,4.57,0,0,1-1.09,1.57c-1.28,1.34-2.74,2.51-4.09,3.77a96.13,96.13,0,0,0-7.84,8.18c-5,5.94-9.24,12.63-11.39,20.14a38.65,38.65,0,0,0-1.13,5.42c-.23,1.74.42,3.49,2.27,4,1.52.42,3.76-.52,4-2.27,1-7.36,4.11-13.75,8.49-19.71a75.41,75.41,0,0,1,7.29-8.35c2.65-2.66,5.85-5,8.14-7.95a7.77,7.77,0,0,0-1.35-11.28c-3.72-2.83-8.5-2-12.53-.31a48.47,48.47,0,0,0-19.33,14.53c-2.38,2.93-4.5,5.92-6.85,8.76a49.06,49.06,0,0,1-3.7,4.06c-1.28,1.25-2.59,2.1-3.89,3.18-.72.6-.52-.42,1,.43.25.14.43.46.65.62s-.06-.06,0-.21c0,0,0,.76,0-.1,0-1.15-.08-2.32-.12-3.47l-.23-6.95c-.16-4.6-.41-9.2-.46-13.8a6,6,0,0,1,.35-2.7,8.08,8.08,0,0,1,1.24-1.6,50.83,50.83,0,0,0,4-5,94.75,94.75,0,0,0,5.59-9.74c2.24-4.23,4.63-8.39,7-12.54,5.61-9.83,11.39-19.57,16.8-29.51.42-.78.84-1.56,1.25-2.35a3.31,3.31,0,0,0-1.17-4.44,3.27,3.27,0,0,0-4.44,1.16Z" transform="translate(-869.47 -869.47)"/><path class="cls-1" d="M1021.37,971.28c-.28.38-.21.27,0,0l-.43.54-1,1.24c-.77.94-1.55,1.86-2.33,2.78-1.58,1.86-3.18,3.71-4.72,5.61-1.89,2.34-3.83,4.81-4.42,7.84a21.79,21.79,0,0,0-.21,5.59,22.51,22.51,0,0,1,.08,4.78,3.36,3.36,0,0,0,2.27,4c3.94,1.42,6.66-2.21,8.62-4.65a45,45,0,0,1,6.14-6.13c4.48-3.77,9.56-7.08,14-11.15a41.27,41.27,0,0,0,6.33-7.25,56.42,56.42,0,0,0,4.71-9c3.08-7,6.25-13.93,9.07-21a63,63,0,0,0,4.73-25c-.11-4.18-6.61-4.19-6.5,0a56,56,0,0,1-3.4,20.45c-2.38,6.58-5.42,12.94-8.22,19.35-2.48,5.69-4.94,11.38-9.15,15.77-4,4.13-8.43,7.16-12.91,10.63a67.33,67.33,0,0,0-7.16,6.22,41.66,41.66,0,0,0-3.24,3.78,11.5,11.5,0,0,1-1.14,1.4s-.64.79-.48.42c.27-.06.23,0-.14,0,.87.07,1,0,.44-.14l2.27,4a24,24,0,0,0,.23-5.42,24.39,24.39,0,0,1-.09-5,8.93,8.93,0,0,1,1.81-3.71c.17-.23.34-.45.5-.68.36-.53-.42.51,0,0l1-1.17c3-3.62,6.18-7.06,9-10.83,1-1.41.23-3.63-1.17-4.44a3.32,3.32,0,0,0-4.44,1.16Z" transform="translate(-869.47 -869.47)"/><path class="cls-1" d="M1069.54,967.93a8.7,8.7,0,0,1-.75,1.24c.4-.56-.13.14-.23.25-.24.28-.49.56-.75.83-.94,1-1.93,2-2.93,2.91a69.82,69.82,0,0,0-6,6.44,116.58,116.58,0,0,0-12.44,18.46c-2,3.68,3.62,7,5.61,3.28a108.29,108.29,0,0,1,12-17.85,71.89,71.89,0,0,1,5.75-6.09c1.9-1.82,4.15-3.78,5.3-6.19a3.33,3.33,0,0,0-1.16-4.44,3.29,3.29,0,0,0-4.45,1.16Z" transform="translate(-869.47 -869.47)"/><path class="cls-1" d="M1033.42,947.22c1.16,2,2.15,4.1,3.21,6.17.51,1,1,2,1.61,3,.19.34.37.68.54,1l.3.65c-.19-.44,0,0,.08.21a40.51,40.51,0,0,1,1.8,6.09c.1.51.2,1,.28,1.52,0,.19.12.75,0,.28,0,.21,0,.42.08.63a16,16,0,0,1,.05,2.77,3.27,3.27,0,0,0,3.25,3.25,3.32,3.32,0,0,0,3.25-3.25c.34-4.29-.94-9-2.49-13-.82-2.07-1.91-3.95-2.93-5.93-1.15-2.23-2.21-4.51-3.47-6.68-2.09-3.62-7.71-.35-5.61,3.28Z" transform="translate(-869.47 -869.47)"/><path class="cls-1" d="M1038.56,914.73l.29.66c.26.56-.17-.45.07.15s.43,1.09.63,1.64c.46,1.22.87,2.45,1.27,3.69.87,2.7,1.64,5.44,2.37,8.18,1.53,5.76,2.86,11.58,4.13,17.41q.89,4,1.72,8a3.25,3.25,0,0,0,6.27-1.73c-2.34-11.07-4.63-22.22-8-33a72,72,0,0,0-3.11-8.3c-.72-1.6-3-2-4.45-1.17a3.33,3.33,0,0,0-1.16,4.45Z" transform="translate(-869.47 -869.47)"/><path class="cls-1" d="M969.49,1057.62l2.27-2.47a.5.5,0,0,0-.71-.71,13.9,13.9,0,0,0-2.44,3l.93.26s0-.14,0-.09a.43.43,0,0,1,0-.09c0-.08,0-.16,0-.25s.09-.35.14-.52l.09-.24a.61.61,0,0,1,0-.12v0h0c.08-.16.16-.32.25-.48a.5.5,0,0,0-.87-.5,6,6,0,0,0-.74,2.34.51.51,0,0,0,.37.48.5.5,0,0,0,.56-.23c.16-.26.33-.51.5-.76l.27-.37c.1-.12,0,0,0,0a.39.39,0,0,1,.08-.1l.14-.18a13.3,13.3,0,0,1,1.27-1.33l-.71-.71-2.26,2.47a.5.5,0,0,0,0,.71.51.51,0,0,0,.7,0Z" transform="translate(-869.47 -869.47)"/><path class="cls-1" d="M974.3,1048.08c3.53-11.78,7.1-23.55,11.22-35.14,1.06-3,2.15-6,3.32-8.91,1.06-2.7,1.89-4.71,3.12-7.36,1.5-3.22,3.21-6.34,4.55-9.63.6-1.49,1.15-3,1.71-4.49,1.59-4.28,3.29-8.55,4.67-12.91a3,3,0,1,0-5.78-1.59c-1.21,3.8-2.68,7.53-4.07,11.27-.67,1.81-1.34,3.62-2,5.43-1,2.61-2.38,5.06-3.6,7.58-5.48,11.3-9.34,23.44-13.13,35.38-2,6.24-3.88,12.5-5.76,18.77-1.11,3.71,4.68,5.29,5.79,1.6Z" transform="translate(-869.47 -869.47)"/></svg>