<svg id="Vector_Smart_Object" data-name="Vector Smart Object" xmlns="http://www.w3.org/2000/svg" xmlns:xlink="http://www.w3.org/1999/xlink" width="209" height="199" viewBox="0 0 209 199">
  <defs>
    <clipPath id="clip-path">
      <rect id="Rectangle_13" data-name="Rectangle 13" width="209" height="199" fill="none"/>
    </clipPath>
  </defs>
  <g id="Group_26" data-name="Group 26">
    <g id="Group_25" data-name="Group 25" clip-path="url(#clip-path)">
      <path id="Path_60" data-name="Path 60" d="M195.242,102.846c-.926-.187-17.627-3.359-32.154,4.951,6.08-11.82,10.245-20.252,10.378-20.522,8.912-18.264,25.319-30.4,25.481-30.515l5.2-3.789-6.014-2.279c-15.358-5.821-26.018-1.481-41.758,6.348-12.627,6.283-30.943,26.446-42.906,40.688-.316-9.932-4.589-39.868-5.763-46.983-1.81-10.988-5.642-38.268-5.681-38.541L100.313,0,95.4,11.3c-.481,1.1-11.781,27.206-13.54,40.412-.505,3.808-1.349,8.107-2.164,12.265A149.709,149.709,0,0,0,76.963,81.3C49.69,45.568,22.788,47.955,21.582,48.086l-11.8,1.257L20.4,54.659c13.582,6.8,21.3,31.191,28.543,59.112a46.464,46.464,0,0,0-6.892-3.943c-16.047-7.592-32.705-6.6-33.409-6.557L0,103.836l6.634,5.574c.141.118,14.187,12.026,23.619,28.871,1.165,2.081,28.713,50.946,45.311,51.559l3.217.118a32.941,32.941,0,0,0,9.259,6.684A24.2,24.2,0,0,0,98.381,199a27.372,27.372,0,0,0,11.682-2.786,15.787,15.787,0,0,0,7.431-7.151,24.774,24.774,0,0,0,9.149,1.835c5.926,0,13.139-2.407,19.37-11.423,3.087-4.468,7.246-11.181,12.062-18.956,11.3-18.241,30.213-48.772,37.474-50.928L209,105.6ZM86.514,65.318c.836-4.262,1.7-8.667,2.235-12.686.917-6.89,4.89-18.153,8.208-26.731,1.26,8.75,2.886,19.857,3.894,25.979C102.934,64.509,107,95.7,106.535,99.32c-.258,1.73-3.974,8.3-8.031,14.715-4.974-7.4-12.551-19.311-14.156-24.669-1.541-5.148.343-14.756,2.165-24.048M63.7,167.761c1.663,3.961,3.3,7.732,4.714,10.916-9.2-8.067-22.386-26.452-32.1-43.8a120.841,120.841,0,0,0-18.428-24.352,65.38,65.38,0,0,1,21.2,5.6c6.393,3.024,9.658,5.969,11.5,9.389a2.894,2.894,0,0,1,.426.843c2.454,7.073,5.407,18.09,7.269,25.335A116.052,116.052,0,0,0,63.7,167.761m43.416,22.153c-5.718,2.685-11,2.823-16.139.421-10.933-5.108-20.653-21.879-27.373-47.223-1.586-5.98-3.121-12.078-4.606-17.975-6.992-27.773-13.673-54.31-25.572-68.543a51.21,51.21,0,0,1,5.947,2.14c9.385,4.026,23.5,13.255,37.44,34.358,14.318,21.675,25.092,42.578,31.049,59.455a34.54,34.54,0,0,1,1.684,7.025,219.957,219.957,0,0,1,1.636,22.783l.054,3.663a8.975,8.975,0,0,1-4.12,3.9m9.535-32.989c-.605-2.047-1.1-4.13-1.525-6.223a59.074,59.074,0,0,0-3.385-10.772c-.554-1.209-1.23-2.321-1.828-3.429-4.838-8.956-7.5-13.888-.789-22.422,5.562-7.069,34.126-42.738,50.343-50.805,10.579-5.263,17.74-8.312,25.059-8.312a27.171,27.171,0,0,1,5.093.488c-6.028,5.369-15.9,15.459-22.393,28.767-7.358,15.077-18.405,36.446-28.77,55.152-4.5,7.63-9.072,15.6-13.055,22.616-2.067,3.385-3.988,6.4-5.715,8.955a86.265,86.265,0,0,0-3.033-14.016m35.521-.073c-4.767,7.693-8.881,14.339-11.87,18.663-6.774,9.8-14.6,9.1-18.848,7.685,2.12-3.815,5.919-10.618,10.432-18.561,3.938-6.448,8.185-13.859,12.406-21.484,4.125-7.005,8.184-13.727,11.644-19.143,5.082-7.957,12.919-12.8,23.289-14.389a47.3,47.3,0,0,1,5.9-.519c-8.637,9-19.864,26.616-32.955,47.748" fill="#ba8841"/>
    </g>
  </g>
</svg>
