<svg xmlns="http://www.w3.org/2000/svg" width="128.59" height="204" viewBox="0 0 128.59 204">
  <g id="Vector_Smart_Object" data-name="Vector Smart Object" transform="translate(-2453.09 -2437)">
    <g id="Vector_Smart_Object-2" data-name="Vector Smart Object" transform="translate(121.272 324.833)">
      <path id="Path_26" data-name="Path 26" d="M2410.739,2138.97s4-9.342,17.124-8.318a137.465,137.465,0,0,1,22.882,3.676s-13.7,14.666-21.686,16.317-20.67-5.632-20.67-5.632Z" fill="#ba8841" stroke="#ba8841" stroke-miterlimit="10" stroke-width="8.766"/>
      <path id="Path_27" data-name="Path 27" d="M2409.165,2171.874s4.308-10.059,18.436-8.956a148.045,148.045,0,0,1,24.637,3.957s-14.756,15.792-23.35,17.57-22.254-6.065-22.254-6.065Z" fill="#ba8841" stroke="#ba8841" stroke-miterlimit="10" stroke-width="8.766"/>
      <path id="Path_28" data-name="Path 28" d="M2409.165,2205.692s4.308-10.059,18.436-8.956a148.045,148.045,0,0,1,24.637,3.957s-14.756,15.792-23.35,17.569-22.254-6.064-22.254-6.064Z" fill="#ba8841" stroke="#ba8841" stroke-miterlimit="10" stroke-width="8.766"/>
      <path id="Path_29" data-name="Path 29" d="M2409.165,2239.51s4.308-10.058,18.436-8.955a148.031,148.031,0,0,1,24.637,3.957s-14.756,15.792-23.35,17.569-22.254-6.065-22.254-6.065Z" fill="#ba8841" stroke="#ba8841" stroke-miterlimit="10" stroke-width="8.766"/>
      <path id="Path_30" data-name="Path 30" d="M2381.486,2138.97s-4-9.342-17.123-8.318a137.465,137.465,0,0,0-22.882,3.676s13.7,14.666,21.686,16.317,20.67-5.632,20.67-5.632Z" fill="#ba8841" stroke="#ba8841" stroke-miterlimit="10" stroke-width="8.766"/>
      <path id="Path_31" data-name="Path 31" d="M2383.06,2171.874s-4.308-10.059-18.436-8.956a148.069,148.069,0,0,0-24.637,3.957s14.756,15.792,23.349,17.57,22.255-6.065,22.255-6.065Z" fill="#ba8841" stroke="#ba8841" stroke-miterlimit="10" stroke-width="8.766"/>
      <path id="Path_32" data-name="Path 32" d="M2383.06,2205.692s-4.308-10.059-18.436-8.956a148.069,148.069,0,0,0-24.637,3.957s14.756,15.792,23.349,17.569,22.255-6.064,22.255-6.064Z" fill="#ba8841" stroke="#ba8841" stroke-miterlimit="10" stroke-width="8.766"/>
      <path id="Path_33" data-name="Path 33" d="M2383.06,2239.51s-4.308-10.058-18.436-8.955a148.055,148.055,0,0,0-24.637,3.957s14.756,15.792,23.349,17.569,22.255-6.065,22.255-6.065Z" fill="#ba8841" stroke="#ba8841" stroke-miterlimit="10" stroke-width="8.766"/>
      <path id="Path_34" data-name="Path 34" d="M2409.165,2271.5s4.308-10.059,18.436-8.956a148.045,148.045,0,0,1,24.637,3.957s-14.756,15.793-23.35,17.57-22.254-6.065-22.254-6.065Z" fill="#ba8841" stroke="#ba8841" stroke-miterlimit="10" stroke-width="8.766"/>
      <path id="Path_35" data-name="Path 35" d="M2383.06,2271.5s-4.308-10.059-18.436-8.956a148.069,148.069,0,0,0-24.637,3.957s14.756,15.793,23.349,17.57,22.255-6.065,22.255-6.065Z" fill="#ba8841" stroke="#ba8841" stroke-miterlimit="10" stroke-width="8.766"/>
      <line id="Line_7" data-name="Line 7" y1="204" transform="translate(2396.289 2112.167)" fill="none" stroke="#ba8841" stroke-miterlimit="10" stroke-width="8.763"/>
    </g>
    <path id="Color_Overlay" data-name="Color Overlay" d="M2517.562,2437v0Zm10.344,165.84,2.53-6.507s4.308-10.058,18.437-8.956a148.156,148.156,0,0,1,24.637,3.956s-14.756,15.794-23.35,17.572a13.673,13.673,0,0,1-2.762.262C2538.928,2609.167,2527.906,2602.841,2527.906,2602.841Zm-43.3,6.065c-8.593-1.778-23.35-17.572-23.35-17.572a148.174,148.174,0,0,1,24.637-3.956c14.128-1.1,18.437,8.956,18.437,8.956l2.53,6.507s-11.021,6.327-19.492,6.327A13.668,13.668,0,0,1,2484.608,2608.906Zm43.3-38.057,2.53-6.506s4.308-10.057,18.437-8.954a148.047,148.047,0,0,1,24.637,3.957s-14.756,15.791-23.35,17.569a13.675,13.675,0,0,1-2.763.262C2538.927,2577.177,2527.906,2570.849,2527.906,2570.849Zm-40.535,6.327a13.676,13.676,0,0,1-2.763-.262c-8.593-1.778-23.35-17.569-23.35-17.569a148.065,148.065,0,0,1,24.637-3.957c14.128-1.1,18.437,8.954,18.437,8.954l2.53,6.506s-11.018,6.326-19.49,6.327Zm40.535-40.145,2.53-6.506s4.308-10.059,18.437-8.956a148.119,148.119,0,0,1,24.637,3.957s-14.756,15.791-23.35,17.569a13.673,13.673,0,0,1-2.762.262C2538.927,2543.359,2527.906,2537.032,2527.906,2537.032Zm-40.536,6.326a13.668,13.668,0,0,1-2.762-.262c-8.593-1.779-23.35-17.569-23.35-17.569a148.137,148.137,0,0,1,24.637-3.957c14.128-1.1,18.437,8.956,18.437,8.956l2.53,6.506s-11.019,6.325-19.49,6.326Zm40.536-40.144,2.53-6.506s4.308-10.059,18.437-8.956a148,148,0,0,1,24.637,3.957s-14.756,15.792-23.35,17.57a13.673,13.673,0,0,1-2.762.262C2538.928,2509.541,2527.906,2503.213,2527.906,2503.213Zm-40.536,6.327a13.668,13.668,0,0,1-2.762-.262c-8.593-1.777-23.35-17.57-23.35-17.57a148.014,148.014,0,0,1,24.637-3.957c14.128-1.1,18.437,8.956,18.437,8.956l2.53,6.506s-11.019,6.326-19.49,6.327Zm42.291-39.695,2.35-6.042s4-9.342,17.123-8.318a137.477,137.477,0,0,1,22.883,3.676s-13.705,14.666-21.686,16.317a12.747,12.747,0,0,1-2.566.243C2539.9,2475.723,2529.662,2469.846,2529.662,2469.846ZM2487,2475.722a12.736,12.736,0,0,1-2.566-.243c-7.981-1.651-21.687-16.317-21.687-16.317a137.477,137.477,0,0,1,22.883-3.676c13.121-1.024,17.123,8.318,17.123,8.318l2.35,6.042s-10.234,5.876-18.1,5.876Z" fill="#fff"/>
  </g>
</svg>
