<svg xmlns="http://www.w3.org/2000/svg" xmlns:xlink="http://www.w3.org/1999/xlink" width="146.329" height="203.271" viewBox="0 0 146.329 203.271">
  <defs>
    <clipPath id="clip-path">
      <rect id="Rectangle_1" data-name="Rectangle 1" width="146.329" height="203.27" fill="none"/>
    </clipPath>
  </defs>
  <g id="Vector_Smart_Object" data-name="Vector Smart Object" transform="translate(-1936.447 -2943.147)">
    <g id="Vector_Smart_Object-2" data-name="Vector Smart Object" transform="translate(1936.447 2943.147)">
      <g id="Group_2" data-name="Group 2">
        <g id="Group_1" data-name="Group 1" clip-path="url(#clip-path)">
          <path id="Path_1" data-name="Path 1" d="M27.928,107.189,78.743,18.651l6.268,10.923A13.069,13.069,0,0,1,92.9,24.668L78.743,0,19.857,102.6a67.419,67.419,0,0,0-7.792,22.337,16.525,16.525,0,0,1,3.343-.33,15.22,15.22,0,0,1,5.929,1.137,58.038,58.038,0,0,1,6.592-18.556" fill="#ba8841"/>
          <path id="Path_2" data-name="Path 2" d="M137.043,135.735a57.868,57.868,0,0,1-6.982,27.621,13.226,13.226,0,0,1,6.87,6.677,67.406,67.406,0,0,0-.233-69.053L114.1,61.6a13.054,13.054,0,0,1-7.706,5.224l22.3,38.862a58.117,58.117,0,0,1,8.348,30.049" fill="#ba8841"/>
          <path id="Path_3" data-name="Path 3" d="M101.688,189.282a58.262,58.262,0,0,1-74.094-25.656,13.419,13.419,0,0,1-8.457,3.858,67.479,67.479,0,0,0,86.943,29.987,14.66,14.66,0,0,1-4.391-8.188" fill="#ba8841"/>
          <path id="Path_4" data-name="Path 4" d="M115.982,118.075A29.544,29.544,0,1,1,86.437,88.553a29.534,29.534,0,0,1,29.545,29.523" fill="#ba8841"/>
          <path id="Path_5" data-name="Path 5" d="M30.219,147.121a15.109,15.109,0,1,1-15.11-15.1,15.1,15.1,0,0,1,15.11,15.1" fill="#ba8841"/>
          <path id="Path_6" data-name="Path 6" d="M116.657,45.878a15.109,15.109,0,1,1-15.109-15.1,15.105,15.105,0,0,1,15.109,15.1" fill="#ba8841"/>
          <path id="Path_7" data-name="Path 7" d="M135.432,181.458a15.109,15.109,0,1,1-15.11-15.1,15.1,15.1,0,0,1,15.11,15.1" fill="#ba8841"/>
          <path id="Path_8" data-name="Path 8" d="M120.323,181.458,86.439,118.077l15.109-72.2" fill="none" stroke="#ba8841" stroke-miterlimit="10" stroke-width="9.283"/>
          <line id="Line_1" data-name="Line 1" y1="29.044" x2="71.33" transform="translate(15.109 118.076)" fill="none" stroke="#ba8841" stroke-miterlimit="10" stroke-width="9.283"/>
        </g>
      </g>
    </g>
    <path id="Color_Overlay" data-name="Color Overlay" d="M1955.583,3110.631a13.419,13.419,0,0,0,8.457-3.857,58.264,58.264,0,0,0,74.094,25.656,14.665,14.665,0,0,0,4.391,8.188,67.479,67.479,0,0,1-86.943-29.987Zm86.078,13.975a15.1,15.1,0,0,1,7.988-13.321l-12.84-24.018a29.52,29.52,0,1,1-7.874-54.947l5.967-28.511a15.112,15.112,0,1,1,5.165.176l5.269,38.046a29.533,29.533,0,0,1,4.373,31.583l4.99,36.033a15.1,15.1,0,1,1-13.038,14.959Zm24.847-18.1a58.191,58.191,0,0,0-1.366-57.669l-22.3-38.862a13.055,13.055,0,0,0,7.706-5.223l22.6,39.379a67.407,67.407,0,0,1,.233,69.053A13.228,13.228,0,0,0,2066.508,3106.5Zm-130.061-16.234a15.113,15.113,0,0,1,29.105-5.7l29.965-12.2-29.965,12.2a15.109,15.109,0,1,1-29.105,5.7Zm15.407-22.513a16.568,16.568,0,0,0-3.343.33,67.4,67.4,0,0,1,7.792-22.336l58.886-102.6,14.158,24.667a13.065,13.065,0,0,0-7.889,4.907l-6.268-10.923-50.815,88.537a58.052,58.052,0,0,0-6.593,18.556A15.223,15.223,0,0,0,1951.854,3067.755Z" fill="#fff"/>
  </g>
</svg>
