<svg id="Vector_Smart_Object" data-name="Vector Smart Object" xmlns="http://www.w3.org/2000/svg" xmlns:xlink="http://www.w3.org/1999/xlink" width="131.75" height="170.321" viewBox="0 0 131.75 170.321">
  <defs>
    <clipPath id="clip-path">
      <rect id="Rectangle_11" data-name="Rectangle 11" width="131.75" height="170.321" fill="none"/>
    </clipPath>
  </defs>
  <g id="Group_22" data-name="Group 22">
    <g id="Group_21" data-name="Group 21" clip-path="url(#clip-path)">
      <ellipse id="Ellipse_1" data-name="Ellipse 1" cx="62.661" cy="81.999" rx="62.661" ry="81.999" transform="translate(3.263 3.161)" fill="none" stroke="#ba8841" stroke-miterlimit="10" stroke-width="6.327"/>
      <path id="Path_53" data-name="Path 53" d="M1.663,85.227c11.414,4.845,23.051,10.939,35.312,13.285a41.063,41.063,0,0,0,16.079.126c6.635-1.37,12.374-3.92,19.322-3.541,11.416.622,22.231,5.457,33.778,4.873,8.924-.451,17.459-3.659,22.44-11.4,2.209-3.434-3.267-6.608-5.465-3.192-11.238,17.466-38.359,2.941-54.018,3.34-5.094.131-9.672,1.626-14.525,3a35.157,35.157,0,0,1-17.522.368C25.89,89.615,15.339,84.216,4.857,79.766c-3.705-1.573-6.935,3.873-3.195,5.461" fill="#ba8841"/>
      <path id="Path_54" data-name="Path 54" d="M47.468,6.07A170.825,170.825,0,0,0,22.842,80.488c-.364,4.052,5.968,4.027,6.329,0A163.79,163.79,0,0,1,52.933,9.262c2.14-3.475-3.333-6.655-5.465-3.192" fill="#ba8841"/>
      <path id="Path_55" data-name="Path 55" d="M59.858,4.18A338.837,338.837,0,0,0,44.577,93.806c-.141,4.071,6.188,4.064,6.329,0A332.16,332.16,0,0,1,65.962,5.861c1.22-3.893-4.889-5.558-6.1-1.681" fill="#ba8841"/>
      <path id="Path_56" data-name="Path 56" d="M67.283,29.964A525.018,525.018,0,0,1,68.344,90.9c-.165,4.07,6.164,4.062,6.329,0a525.014,525.014,0,0,0-1.062-60.938c-.3-4.034-6.637-4.066-6.329,0" fill="#ba8841"/>
      <path id="Path_57" data-name="Path 57" d="M81.3,8.983a141.881,141.881,0,0,1,14.727,55.8c.217,4.047,6.548,4.074,6.329,0A149.758,149.758,0,0,0,86.765,5.791c-1.817-3.643-7.279-.443-5.466,3.192" fill="#ba8841"/>
      <path id="Path_58" data-name="Path 58" d="M115.733,93.795a161.587,161.587,0,0,0-5.905-51.481c-1.1-3.912-7.211-2.25-6.1,1.68a155.911,155.911,0,0,1,5.679,49.8c-.192,4.069,6.139,4.059,6.329,0" fill="#ba8841"/>
    </g>
  </g>
</svg>
